<svg width="16" height="16" viewBox="0 0 16 16" fill="none" xmlns="http://www.w3.org/2000/svg">
<path d="M11.2598 1.75H14.2598C14.4587 1.75 14.6494 1.82902 14.7901 1.96967C14.9307 2.11032 15.0098 2.30109 15.0098 2.5V14.5C15.0098 14.6989 14.9307 14.8897 14.7901 15.0303C14.6494 15.171 14.4587 15.25 14.2598 15.25H0.759766C0.560853 15.25 0.370088 15.171 0.229436 15.0303C0.0887832 14.8897 0.00976563 14.6989 0.00976562 14.5V2.5C0.00976562 2.30109 0.0887832 2.11032 0.229436 1.96967C0.370088 1.82902 0.560853 1.75 0.759766 1.75H3.75977V0.25H5.25977V1.75H9.75977V0.25H11.2598V1.75ZM1.50977 6.25V13.75H13.5098V6.25H1.50977ZM3.00977 7.75H4.50977V9.25H3.00977V7.75ZM6.75977 7.75H8.25977V9.25H6.75977V7.75ZM10.5098 7.75H12.0098V9.25H10.5098V7.75Z" fill="white"/>
</svg>
