<svg width="16" height="16" viewBox="0 0 16 16" fill="none" xmlns="http://www.w3.org/2000/svg">
<path d="M7.50977 15.25C3.36752 15.25 0.00976562 11.8923 0.00976562 7.75C0.00976562 3.60775 3.36752 0.25 7.50977 0.25C11.652 0.25 15.0098 3.60775 15.0098 7.75C15.0098 11.8923 11.652 15.25 7.50977 15.25ZM7.50977 13.75C9.10106 13.75 10.6272 13.1179 11.7524 11.9926C12.8776 10.8674 13.5098 9.3413 13.5098 7.75C13.5098 6.1587 12.8776 4.63258 11.7524 3.50736C10.6272 2.38214 9.10106 1.75 7.50977 1.75C5.91847 1.75 4.39234 2.38214 3.26713 3.50736C2.14191 4.63258 1.50977 6.1587 1.50977 7.75C1.50977 9.3413 2.14191 10.8674 3.26713 11.9926C4.39234 13.1179 5.91847 13.75 7.50977 13.75ZM8.25977 7.75H11.2598V9.25H6.75977V4H8.25977V7.75Z" fill="white"/>
</svg>
