<svg width="81" height="20" viewBox="0 0 81 20" fill="none" xmlns="http://www.w3.org/2000/svg">
<path d="M13.6533 5.57778H9.48359L5.87518 10.7365H3.92397V0.632935H0.449219V19.3432H3.92397V14.2112H5.87518L9.48359 19.3432H13.6533L8.92228 12.4738L13.6533 5.57778Z" fill="#4264FB"/>
<path d="M20.9787 19.3432C25.3088 19.3432 27.6342 16.3763 27.6342 12.4471C27.6342 8.51796 25.3088 5.57778 20.9787 5.57778C16.6486 5.57778 14.3232 8.51796 14.3232 12.4471C14.3232 16.3763 16.6486 19.3432 20.9787 19.3432ZM20.9787 15.8684C18.6265 15.8684 17.7979 15.12 17.7979 12.4471C17.7979 9.77422 18.6265 9.05254 20.9787 9.05254C23.3308 9.05254 24.1594 9.77422 24.1594 12.4471C24.1594 15.12 23.3308 15.8684 20.9787 15.8684Z" fill="#4264FB"/>
<path d="M42.4553 5.57778H33.3675V0.632935H29.8928V19.3432H33.3675V9.05254H38.9806V19.3432H42.4553V5.57778Z" fill="#4264FB"/>
<path d="M51.5185 19.3432C55.8486 19.3432 58.174 16.3763 58.174 12.4471C58.174 8.51796 55.8486 5.57778 51.5185 5.57778C47.1885 5.57778 44.863 8.51796 44.863 12.4471C44.863 16.3763 47.1885 19.3432 51.5185 19.3432ZM51.5185 15.8684C49.1664 15.8684 48.3378 15.12 48.3378 12.4471C48.3378 9.77422 49.1664 9.05254 51.5185 9.05254C53.8707 9.05254 54.6993 9.77422 54.6993 12.4471C54.6993 15.12 53.8707 15.8684 51.5185 15.8684Z" fill="#4264FB"/>
<path d="M69.0331 5.57778H60.4263V19.3432H63.9011V9.05254H69.0331V5.57778Z" fill="#4264FB"/>
<path d="M80.4492 9.05254V5.57778H76.7874V0.632935H73.3126V5.57778H71.1743V9.05254H73.3126V19.3432H80.4492V15.8684H76.7874V9.05254H80.4492Z" fill="#4264FB"/>
</svg>
