<svg width="21" height="19" viewBox="0 0 21 19" fill="none" xmlns="http://www.w3.org/2000/svg">
<path d="M10.8261 2.03649C13.1751 -0.0725129 16.8051 -0.00251269 19.0681 2.26449C21.3301 4.53249 21.4081 8.14449 19.3041 10.5005L10.8241 18.9925L2.34608 10.5005C0.242079 8.14449 0.321079 4.52649 2.58208 2.26449C4.84708 0.000487328 8.47008 -0.0755129 10.8261 2.03649ZM17.6521 3.67749C16.1521 2.17549 13.7321 2.11449 12.1621 3.52449L10.8271 4.72249L9.49108 3.52549C7.91608 2.11349 5.50108 2.17549 3.99708 3.67949C2.50708 5.16949 2.43208 7.55449 3.80508 9.13049L10.8251 16.1615L17.8451 9.13149C19.2191 7.55449 19.1441 5.17249 17.6521 3.67749Z" fill="white"/>
</svg>
