<svg width="16" height="16" viewBox="0 0 16 16" fill="none" xmlns="http://www.w3.org/2000/svg">
<path d="M8.10986 15.2258C3.96761 15.2258 0.609863 11.8681 0.609863 7.72583C0.609863 3.58358 3.96761 0.22583 8.10986 0.22583C12.2521 0.22583 15.6099 3.58358 15.6099 7.72583C15.6099 11.8681 12.2521 15.2258 8.10986 15.2258ZM8.10986 13.7258C9.70116 13.7258 11.2273 13.0937 12.3525 11.9685C13.4777 10.8433 14.1099 9.31713 14.1099 7.72583C14.1099 6.13453 13.4777 4.60841 12.3525 3.48319C11.2273 2.35797 9.70116 1.72583 8.10986 1.72583C6.51856 1.72583 4.99244 2.35797 3.86722 3.48319C2.742 4.60841 2.10986 6.13453 2.10986 7.72583C2.10986 9.31713 2.742 10.8433 3.86722 11.9685C4.99244 13.0937 6.51856 13.7258 8.10986 13.7258ZM8.85986 7.72583H11.8599V9.22583H7.35986V3.97583H8.85986V7.72583Z" fill="#0B6144"/>
</svg>
