<svg width="21" height="19" viewBox="0 0 21 19" fill="none" xmlns="http://www.w3.org/2000/svg">
<path d="M10.4262 2.01232C12.7752 -0.0966828 16.4052 -0.0266826 18.6682 2.24032C20.9302 4.50832 21.0082 8.12032 18.9042 10.4763L10.4242 18.9683L1.94618 10.4763C-0.157823 8.12032 -0.0788229 4.50232 2.18218 2.24032C4.44718 -0.0236826 8.07018 -0.0996828 10.4262 2.01232ZM17.2522 3.65332C15.7522 2.15132 13.3322 2.09032 11.7622 3.50032L10.4272 4.69832L9.09118 3.50132C7.51618 2.08932 5.10118 2.15132 3.59718 3.65532C2.10718 5.14532 2.03218 7.53032 3.40518 9.10632L10.4252 16.1373L17.4452 9.10732C18.8192 7.53032 18.7442 5.14832 17.2522 3.65332Z" fill="#0B6144"/>
</svg>
