<svg width="16" height="16" viewBox="0 0 16 16" fill="none" xmlns="http://www.w3.org/2000/svg">
<path d="M11.8599 1.72583H14.8599C15.0588 1.72583 15.2495 1.80485 15.3902 1.9455C15.5308 2.08615 15.6099 2.27692 15.6099 2.47583V14.4758C15.6099 14.6747 15.5308 14.8655 15.3902 15.0062C15.2495 15.1468 15.0588 15.2258 14.8599 15.2258H1.35986C1.16095 15.2258 0.970185 15.1468 0.829533 15.0062C0.688881 14.8655 0.609863 14.6747 0.609863 14.4758V2.47583C0.609863 2.27692 0.688881 2.08615 0.829533 1.9455C0.970185 1.80485 1.16095 1.72583 1.35986 1.72583H4.35986V0.22583H5.85986V1.72583H10.3599V0.22583H11.8599V1.72583ZM2.10986 6.22583V13.7258H14.1099V6.22583H2.10986ZM3.60986 7.72583H5.10986V9.22583H3.60986V7.72583ZM7.35986 7.72583H8.85986V9.22583H7.35986V7.72583ZM11.1099 7.72583H12.6099V9.22583H11.1099V7.72583Z" fill="#0B6144"/>
</svg>
